<?xml version="1.0" encoding="UTF-8" standalone="no" ?>
<!DOCTYPE svg PUBLIC "-//W3C//DTD SVG 1.1//EN" "http://www.w3.org/Graphics/SVG/1.1/DTD/svg11.dtd">
<svg xmlns="http://www.w3.org/2000/svg" xmlns:xlink="http://www.w3.org/1999/xlink" version="1.1" width="6000" height="6000" viewBox="0 0 640 640" xml:space="preserve">
<desc>Created with Fabric.js 4.6.0</desc>
<defs>
</defs>
<g transform="matrix(1 0 0 1 296.52 336.3)" id="LDNls8twXFdedITd92XgA"  >
<g style="" vector-effect="non-scaling-stroke"   >
		<g transform="matrix(1 0 0 1 -84.43 0)" id="E5XBPBP-nLpkHm-s7mfp9"  >
<path style="stroke: none; stroke-width: 1; stroke-dasharray: none; stroke-linecap: butt; stroke-dashoffset: 0; stroke-linejoin: miter; stroke-miterlimit: 4; fill: rgb(255,255,255); fill-rule: nonzero; opacity: 1;" vector-effect="non-scaling-stroke"  transform=" translate(-27.12, -17.05)" d="M 26.8 4.8 C 27.5 3.5999999999999996 28.6 2.5 30 1.7999999999999998 C 32.2 0.7999999999999998 35.1 1.2999999999999998 37 2.8 C 38.7 4.3 39.7 6.5 39.2 8.899999999999999 C 39.7 8.899999999999999 40 8.599999999999998 40.5 8.399999999999999 C 43.2 7.599999999999999 46 8.399999999999999 47.8 10.7 C 49.099999999999994 12.399999999999999 49.5 14.899999999999999 48.599999999999994 16.799999999999997 C 48.3 17.799999999999997 47.599999999999994 18.599999999999998 46.8 19.499999999999996 L 47 19.699999999999996 C 49.5 19.899999999999995 52 21.699999999999996 52.8 24.199999999999996 C 53.599999999999994 26.699999999999996 53 29.199999999999996 51.099999999999994 30.999999999999996 C 49.599999999999994 32.5 47.8 33 45.8 32.8 L 8.2 32.8 C 4.999999999999999 32.8 2.6999999999999993 31.499999999999996 1.5999999999999996 28.799999999999997 C 0.5999999999999996 26.499999999999996 1.0999999999999996 23.499999999999996 2.8999999999999995 21.699999999999996 C 4.1 20.499999999999996 5.6 19.999999999999996 7.199999999999999 19.699999999999996 C 5.3999999999999995 17.999999999999996 4.499999999999999 15.699999999999996 4.999999999999999 13.199999999999996 C 5.199999999999999 11.399999999999995 6.799999999999999 9.199999999999996 8.799999999999999 8.499999999999996 C 10.499999999999998 7.799999999999996 12.799999999999999 7.9999999999999964 14.399999999999999 8.799999999999997 L 14.399999999999999 8.799999999999997 C 13.899999999999999 6.099999999999997 15.099999999999998 3.6999999999999975 17.4 2.1999999999999975 C 19.4 0.8999999999999975 22.5 0.8999999999999975 24.5 2.3999999999999977 C 25.5 3 26.3 4 26.8 4.8 z" stroke-linecap="round" />
</g>
		<g transform="matrix(1 0 0 1 -78.74 -2.91)" id="HBIXDBzDwpRwgRjBMZH--"  >
<path style="stroke: none; stroke-width: 1; stroke-dasharray: none; stroke-linecap: butt; stroke-dashoffset: 0; stroke-linejoin: miter; stroke-miterlimit: 4; fill: rgb(0,0,0); fill-rule: nonzero; opacity: 1;" vector-effect="non-scaling-stroke"  transform=" translate(-32.68, -14.33)" d="M 37.4 5.8 C 37.1 5.1 36.6 4.5 36 4 C 34.5 2.7 32 2.5 30.2 3.5 C 28.5 4.3 27.5 6.2 27.5 8 L 27.5 8 L 29.7 8 C 29.9 8.2 30 8.2 30.2 8.3 C 29.3 9 27.6 9.6 28 11 L 30.3 25.8 L 30.3 25.8 L 36.8 11.200000000000001 C 37.8 9.5 38.3 7.5 37.4 5.8 z" stroke-linecap="round" />
</g>
		<g transform="matrix(1 0 0 1 -90.46 -2.89)" id="X4jHtRIVVPi3AAjyckn08"  >
<path style="stroke: none; stroke-width: 1; stroke-dasharray: none; stroke-linecap: butt; stroke-dashoffset: 0; stroke-linejoin: miter; stroke-miterlimit: 4; fill: rgb(200,35,74); fill-rule: nonzero; opacity: 1;" vector-effect="non-scaling-stroke"  transform=" translate(-21.09, -14.16)" d="M 23.5 25.6 L 26.2 8.700000000000003 C 26.4 7.500000000000003 26 6.400000000000003 25.5 5.400000000000003 C 25 4.3 24 3.6 23 3.1 C 21.2 2.3 18.8 2.8000000000000003 17.5 4.1 C 16.2 5.399999999999999 15.5 7.3999999999999995 16.2 9.399999999999999 L 22.799999999999997 24.2 L 23.5 25.6 L 23.5 25.6 z" stroke-linecap="round" />
</g>
		<g transform="matrix(1 0 0 1 -72.48 2.32)" id="sx8eJ5kyM0V9U5Ed_Hm_Q"  >
<path style="stroke: none; stroke-width: 1; stroke-dasharray: none; stroke-linecap: butt; stroke-dashoffset: 0; stroke-linejoin: miter; stroke-miterlimit: 4; fill: rgb(0,136,207); fill-rule: nonzero; opacity: 1;" vector-effect="non-scaling-stroke"  transform=" translate(-39.07, -19.37)" d="M 47.1 12.4 C 47.9 13.9 47.800000000000004 16.2 46.800000000000004 17.5 C 46.1 18.5 45.1 19 44.300000000000004 19.7 L 30.500000000000004 29.2 L 30.500000000000004 29.2 L 30.700000000000003 28.7 L 38 12.3 C 39.2 10.3 41.2 9.3 43.3 9.600000000000001 C 44.8 10 46.3 11 47.1 12.4 z" stroke-linecap="round" />
</g>
		<g transform="matrix(1 0 0 1 -96.67 2.34)" id="zvw6ECKxjMey2-PP-DqSD"  >
<path style="stroke: none; stroke-width: 1; stroke-dasharray: none; stroke-linecap: butt; stroke-dashoffset: 0; stroke-linejoin: miter; stroke-miterlimit: 4; fill: rgb(242,111,33); fill-rule: nonzero; opacity: 1;" vector-effect="non-scaling-stroke"  transform=" translate(-14.88, -19.39)" d="M 8.1 18.6 L 23.4 29.1 L 23.599999999999998 29.1 L 15.999999999999998 12.3 C 14.699999999999998 10.100000000000001 11.999999999999998 9.100000000000001 9.499999999999998 10 C 7.999999999999998 10.7 6.799999999999998 12 6.499999999999998 13.5 C 5.7 15.4 6.4 17.4 8.1 18.6 z" stroke-linecap="round" />
</g>
		<g transform="matrix(1 0 0 1 -70.82 9.39)" id="YKYaUgBCJ_ITn6ZwpS8ow"  >
<path style="stroke: none; stroke-width: 1; stroke-dasharray: none; stroke-linecap: butt; stroke-dashoffset: 0; stroke-linejoin: miter; stroke-miterlimit: 4; fill: rgb(13,176,75); fill-rule: nonzero; opacity: 1;" vector-effect="non-scaling-stroke"  transform=" translate(-40.73, -26.44)" d="M 50.4 29.6 C 51.6 28.3 51.699999999999996 25.900000000000002 51.1 24.5 C 50.6 23.3 49.6 22.3 48.4 21.8 C 46.9 21.1 44.9 21.3 43.6 22.1 L 30 31.5 L 46.3 31.5 C 47.9 31.5 49.2 30.9 50.4 29.6 z" stroke-linecap="round" />
</g>
		<g transform="matrix(1 0 0 1 -98.52 9.29)" id="lQglFAxCKaFubqvaCSTNj"  >
<path style="stroke: none; stroke-width: 1; stroke-dasharray: none; stroke-linecap: butt; stroke-dashoffset: 0; stroke-linejoin: miter; stroke-miterlimit: 4; fill: rgb(252,184,19); fill-rule: nonzero; opacity: 1;" vector-effect="non-scaling-stroke"  transform=" translate(-13.03, -26.34)" d="M 23.8 31.5 L 10.200000000000001 21.9 C 8.9 21.099999999999998 6.900000000000001 20.9 5.400000000000001 21.599999999999998 C 4.200000000000001 22.099999999999998 3.200000000000001 23.099999999999998 2.700000000000001 24.299999999999997 C 1.900000000000001 25.999999999999996 2.200000000000001 28.099999999999998 3.4000000000000012 29.4 C 4.400000000000001 30.7 5.900000000000001 31.4 7.600000000000001 31.4 L 23.8 31.5 z" stroke-linecap="round" />
</g>
		<g transform="matrix(1 0 0 1 -35.01 0.99)" id="pF9R0OeEfcAbAqh4z8qlP"  >
<path style="stroke: none; stroke-width: 1; stroke-dasharray: none; stroke-linecap: butt; stroke-dashoffset: 0; stroke-linejoin: miter; stroke-miterlimit: 4; fill: rgb(255,255,255); fill-rule: nonzero; opacity: 1;" vector-effect="non-scaling-stroke"  transform=" translate(-76.54, -18.04)" d="M 84.8 13.4 C 84.1 10.4 81.8 9.600000000000001 79 9.4 C 70.2 8.6 68.7 15.2 68.7 18 C 68.7 22.8 70 26.6 78.7 26.6 C 80.4 26.6 84.7 24.900000000000002 84.7 22.3 L 97.2 22.3 C 96.7 30.3 83.4 32.1 77.6 32.1 C 65.6 32.1 55.3 29.900000000000002 55.8 18 C 56.099999999999994 9.5 64.1 3.5999999999999996 80 4 C 88.8 4.2 97.3 7 97.3 13.3 L 84.8 13.3 z" stroke-linecap="round" />
</g>
		<g transform="matrix(-1 0 0 1 89.64 0.89)" id="xe5IDJSp6nwso6SE3zFsi"  >
<path style="stroke: none; stroke-width: 1; stroke-dasharray: none; stroke-linecap: butt; stroke-dashoffset: 0; stroke-linejoin: miter; stroke-miterlimit: 4; fill: rgb(255,255,255); fill-rule: nonzero; opacity: 1;" vector-effect="non-scaling-stroke"  transform=" translate(-201.19, -17.94)" d="M 209.4 13.4 C 208.70000000000002 10.4 206.4 9.600000000000001 203.6 9.4 C 194.79999999999998 8.6 193.29999999999998 15.2 193.29999999999998 17.9 C 193.29999999999998 22.7 194.6 26.5 203.29999999999998 26.5 C 204.99999999999997 26.5 209.29999999999998 24.8 209.29999999999998 22.2 L 221.79999999999998 22.2 C 221.29999999999998 30.2 207.99999999999997 32 202.2 32 C 190.2 32 179.89999999999998 29.8 180.39999999999998 17.9 C 180.7 9.399999999999999 188.7 3.4999999999999982 204.59999999999997 3.8999999999999986 C 213.39999999999998 4.099999999999999 221.99999999999997 6.899999999999999 221.99999999999997 13.2 L 209.39999999999998 13.2 L 209.39999999999998 13.4 z" stroke-linecap="round" />
</g>
		<g transform="matrix(0 -0.66 1.38 0 7.44 0.58)" id="7Inmo40lzMuxLLHcQnyQp"  >
<path style="stroke: none; stroke-width: 1; stroke-dasharray: none; stroke-linecap: butt; stroke-dashoffset: 0; stroke-linejoin: miter; stroke-miterlimit: 4; fill: rgb(255,255,255); fill-rule: nonzero; opacity: 1;" vector-effect="non-scaling-stroke"  transform=" translate(0, 0)" d="M -20.2 -13.35014 L -4.099999999999998 -13.35014 L 9.700000000000003 5.949860000000001 L 9.900000000000002 5.949860000000001 L 9.900000000000002 -13.35014 L 20.200000000000003 -13.35014 L 20.200000000000003 13.34986 L 4.8000000000000025 13.34986 L -9.599999999999998 -5.950140000000001 L -9.799999999999997 -5.950140000000001 L -9.799999999999997 13.34986 L -20.199999999999996 13.34986 C -20.199999999999996 13.44986 -20.199999999999996 -13.35014 -20.199999999999996 -13.35014 z" stroke-linecap="round" />
</g>
		<g transform="matrix(1 0 0 1 49.3 0.85)" id="4vt9InvGEd1_-ywVq3-FB"  >
<path style="stroke: none; stroke-width: 1; stroke-dasharray: none; stroke-linecap: butt; stroke-dashoffset: 0; stroke-linejoin: miter; stroke-miterlimit: 4; fill: rgb(255,255,255); fill-rule: nonzero; opacity: 1;" vector-effect="non-scaling-stroke"  transform=" translate(-160.85, -17.9)" d="M 143.1 4.6 L 162.7 4.6 C 172.2 4.6 177.6 7.3 177.6 11.2 C 177.6 13.5 175.29999999999998 16.5 170.1 17.299999999999997 L 170.1 17.299999999999997 C 176.2 17.599999999999998 178.6 21.599999999999998 178.6 23.9 C 178.6 28.7 173.29999999999998 31.2 162.7 31.2 L 143.1 31.2 L 143.1 4.6 z M 154.6 15.1 L 157.9 15.1 C 162.9 15.1 165.5 14.799999999999999 165.5 12.6 C 165.5 10.4 163.3 9.6 158.9 9.6 L 154.70000000000002 9.6 L 154.70000000000002 15.1 L 154.6 15.1 z M 154.6 25.9 L 157.9 25.9 C 163.9 25.9 166.20000000000002 25.2 166.20000000000002 23.2 C 166.20000000000002 21 163.4 20.2 158.9 20.2 L 154.70000000000002 20.2 L 154.70000000000002 25.799999999999997 L 154.6 25.799999999999997 z" stroke-linecap="round" />
</g>
</g>
</g>
</svg>